<?xml version="1.0" encoding="UTF-8" standalone="no"?>
<svg
   xmlns:dc="http://purl.org/dc/elements/1.1/"
   xmlns:cc="http://creativecommons.org/ns#"
   xmlns:rdf="http://www.w3.org/1999/02/22-rdf-syntax-ns#"
   xmlns:svg="http://www.w3.org/2000/svg"
   xmlns="http://www.w3.org/2000/svg"
   xmlns:sodipodi="http://sodipodi.sourceforge.net/DTD/sodipodi-0.dtd"
   xmlns:inkscape="http://www.inkscape.org/namespaces/inkscape"
   version="1.1"
   id="MilwaukeeFlag"
   width="108"
   height="108"
   xml:space="preserve"
   sodipodi:docname="new.svg"
   inkscape:version="0.92.3 (unknown)"><metadata
   id="metadata3928"><rdf:RDF><cc:Work
       rdf:about=""><dc:format>image/svg+xml</dc:format><dc:type
         rdf:resource="http://purl.org/dc/dcmitype/StillImage" /><dc:title /></cc:Work></rdf:RDF></metadata><defs
   id="defs3926" /><sodipodi:namedview
   pagecolor="#ffffff"
   bordercolor="#666666"
   borderopacity="1"
   objecttolerance="10"
   gridtolerance="10"
   guidetolerance="10"
   inkscape:pageopacity="0"
   inkscape:pageshadow="2"
   inkscape:window-width="1855"
   inkscape:window-height="1056"
   id="namedview3924"
   showgrid="false"
   inkscape:zoom="8"
   inkscape:cx="79.074206"
   inkscape:cy="55.023193"
   inkscape:window-x="65"
   inkscape:window-y="24"
   inkscape:window-maximized="1"
   inkscape:current-layer="MilwaukeeFlag" />
<rect
   y="54"
   width="108"
   height="54"
   id="rect3909"
   x="0"
   style="fill:#0d2240;stroke-width:0.36000001" />
<rect
   y="0"
   width="108"
   height="54"
   id="rect3911"
   x="0"
   style="fill:#f7a800;stroke-width:0.36000001" />
<path
   d="M 54,29 C 40.2,29 29,40.2 29,54 H 79 C 79,40.2 67.8,29 54,29 Z"
   id="path3913"
   inkscape:connector-curvature="0"
   style="fill:#ffffff;stroke-width:0.25" />
<g
   transform="matrix(0.25,0,0,0.25,-8.5,16.5)"
   id="g3921">
	<path
   d="M 350,150 H 150 c 0,6.8 0.7,13.5 2,20 h 196 c 1.3,-6.5 2,-13.2 2,-20 z"
   id="path3915"
   inkscape:connector-curvature="0"
   style="fill:#00a8e1" />
	<path
   d="m 170,210 h 160 c 4.6,-6.2 8.5,-12.9 11.6,-20 H 158.3 c 3.2,7.1 7.1,13.8 11.7,20 z"
   id="path3917"
   inkscape:connector-curvature="0"
   style="fill:#00a8e1" />
	<path
   d="m 250,250 c 22.5,0 43.3,-7.4 60,-20 H 190 c 16.7,12.5 37.5,20 60,20 z"
   id="path3919"
   inkscape:connector-curvature="0"
   style="fill:#00a8e1" />
</g>
</svg>