<?xml version="1.0" encoding="UTF-8" standalone="no"?>
<!-- Generator: Adobe Illustrator 19.0.0, SVG Export Plug-In . SVG Version: 6.00 Build 0)  -->

<svg
   xmlns:dc="http://purl.org/dc/elements/1.1/"
   xmlns:cc="http://creativecommons.org/ns#"
   xmlns:rdf="http://www.w3.org/1999/02/22-rdf-syntax-ns#"
   xmlns:svg="http://www.w3.org/2000/svg"
   xmlns="http://www.w3.org/2000/svg"
   xmlns:sodipodi="http://sodipodi.sourceforge.net/DTD/sodipodi-0.dtd"
   xmlns:inkscape="http://www.inkscape.org/namespaces/inkscape"
   version="1.1"
   id="Layer_1"
   x="0px"
   y="0px"
   viewBox="0 0 108 108"
   style="enable-background:new 0 0 108 108;"
   xml:space="preserve"
   sodipodi:docname="dumpster (1).svg"
   inkscape:version="0.92.3 (unknown)"><metadata
   id="metadata371"><rdf:RDF><cc:Work
       rdf:about=""><dc:format>image/svg+xml</dc:format><dc:type
         rdf:resource="http://purl.org/dc/dcmitype/StillImage" /></cc:Work></rdf:RDF></metadata><defs
   id="defs369" /><sodipodi:namedview
   pagecolor="#ffffff"
   bordercolor="#666666"
   borderopacity="1"
   objecttolerance="10"
   gridtolerance="10"
   guidetolerance="10"
   inkscape:pageopacity="0"
   inkscape:pageshadow="2"
   inkscape:window-width="1855"
   inkscape:window-height="1056"
   id="namedview367"
   showgrid="false"
   inkscape:zoom="5.2149429"
   inkscape:cx="68.827248"
   inkscape:cy="56.078168"
   inkscape:window-x="65"
   inkscape:window-y="24"
   inkscape:window-maximized="1"
   inkscape:current-layer="Layer_1" />


<g
   id="g380"
   transform="matrix(0.10769677,0,0,0.10828653,26.942229,25.849711)"><polygon
     transform="matrix(0.88443812,0,0,1.0119636,22.565296,-17.946026)"
     id="polygon322"
     points="163,495.996 347.999,502.684 344.999,486.996 324.999,437.324 345.999,404.996 378.671,387.997 382.999,84.999 58.001,84.999 58.001,116.999 82.001,181.998 100.001,209.998 106.001,298.998 97.001,380.997 119,468.996 "
     style="fill:#999999" /><g
     transform="translate(-21.694789,-11.932134)"
     id="g328">
	<rect
   id="rect324"
   height="33.494865"
   width="278.11459"
   style="fill:#999999"
   y="46.507133"
   x="95.55838" />
	<path
   inkscape:connector-curvature="0"
   id="path326"
   d="m 435.405,447.074 c 0,31.328 -25.406,56.734 -56.734,56.734 -31.344,0 -56.75,-25.406 -56.75,-56.734 0,-31.344 25.406,-56.749 56.75,-56.749 31.328,0 56.734,25.405 56.734,56.749 z"
   style="fill:#999999" />
</g><g
     transform="translate(-21.694789,-11.932134)"
     id="g334">
	<path
   inkscape:connector-curvature="0"
   id="path330"
   d="m 371.124,455.543 c 4.156,4.172 10.922,4.172 15.078,0 4.172,-4.172 4.172,-10.922 0,-15.078 -4.156,-4.188 -10.922,-4.188 -15.078,0 -4.172,4.156 -4.172,10.906 0,15.078 z"
   style="fill:#080808" />
	<path
   sodipodi:nodetypes="ccsccscsscscssscccccscccsscccccscscsssssccccccc"
   inkscape:connector-curvature="0"
   id="path332"
   d="M 462.872,80.561 441.53,37.906 C 439.733,34.281 436.03,32 431.999,32 h -53.344 c -167.29315,0.448974 -209.29399,-0.647853 -286.248829,0 -5.89,0 -10.656,4.781 -10.656,10.656 v 42.687 42.656 c 0,1.656 0.375,3.281 1.125,4.781 l 41.530999,83.062 v 178.812 c 0,1.188 0.141,29.062 11.438,57.312 15.703,39.281 44.953,60.031 84.562,60.031 H 378.656 c 35.297,0 64,-28.719 64,-64 0,-31.656 -23.094,-58.015 -53.328,-63.108 V 85.343 53.344 h 36.078 l 18.375,36.749 c 1.875,3.75 5.641,5.906 9.562,5.906 1.594,0 3.219,-0.359 4.75,-1.125 5.279,-2.625 7.404,-9.047 4.779,-14.313 z M 155.84317,444.527 c -9.921,-24.469 -10.093,-49.624 -10.093,-49.874 V 213.342 c 0,-1.656 -0.391,-3.297 -1.125,-4.781 l -41.547,-83.078 V 95.999 H 367.999 v 288.889 c -30.234,5.094 -53.344,31.452 -53.344,63.108 0,16.375 6.188,31.344 16.344,42.656 H 220.40517 c -30.421,0 -52.14,-15.5 -64.562,-46.125 z m 265.48383,3.469 c 0,23.531 -19.141,42.656 -42.672,42.656 -23.516,0 -42.656,-19.125 -42.656,-42.656 0,-23.531 19.141,-42.656 42.656,-42.656 23.532,0 42.672,19.125 42.672,42.656 z M 367.999,74.655 H 103.07817 V 53.344 h 106.671 51.57783 106.672 z"
   style="fill:#080808" />
</g></g>
<g
   id="g336">
</g>
<g
   id="g338">
</g>
<g
   id="g340">
</g>
<g
   id="g342">
</g>
<g
   id="g344">
</g>
<g
   id="g346">
</g>
<g
   id="g348">
</g>
<g
   id="g350">
</g>
<g
   id="g352">
</g>
<g
   id="g354">
</g>
<g
   id="g356">
</g>
<g
   id="g358">
</g>
<g
   id="g360">
</g>
<g
   id="g362">
</g>
<g
   id="g364">
</g>
</svg>