<?xml version="1.0" encoding="utf-8"?>
<svg version="1.1" id="MilwaukeeFlag" xmlns="http://www.w3.org/2000/svg" xmlns:xlink="http://www.w3.org/1999/xlink" width="300" height="300" xml:space="preserve">
<rect y="150" fill="#0D2240" width="300" height="150"/>
<rect y="0" fill="#F7A800" width="300" height="150"/>
<path fill="#FFFFFF" d="M 150,50 C 94.8,50 50,94.8 50,150 H 250 C 250,94.8 205.2,50 150,50 Z"/>
<g transform="translate(-100)">
	<path fill="#00A8E1" d="M 350,150 H 150 c 0,6.8 0.7,13.5 2,20 h 196 c 1.3,-6.5 2,-13.2 2,-20 z"/>
	<path fill="#00A8E1" d="m 170,210 h 160 c 4.6,-6.2 8.5,-12.9 11.6,-20 H 158.3 c 3.2,7.1 7.1,13.8 11.7,20 z"/>
	<path fill="#00A8E1" d="m 250,250 c 22.5,0 43.3,-7.4 60,-20 H 190 c 16.7,12.5 37.5,20 60,20 z"/>
</g>
</svg>
